<?xml version="1.0" encoding="UTF-8"?><svg id="Calque_1" xmlns="http://www.w3.org/2000/svg" viewBox="0 0 22.41 31.55"><defs><style>.cls-1{fill:#fff;}.cls-2{font-family:BodoniMTCondensed, 'Bodoni MT';font-size:6px;}.cls-3{fill:none;}</style></defs><g><path class="cls-1" d="M9.21,15.29h-2.06c-.2,0-.39-.03-.59-.06-.16-.03-.31-.09-.42-.21-.1-.11-.18-.24-.2-.39,0-.08-.03-.17-.04-.25h-.28v2.23h4.26c-.01-.2-.02-.39-.04-.59-.03-.49-.06-.97-.09-1.46,0-.08-.03-.11-.1-.14-.36-.13-.69-.32-.96-.59-.18-.18-.33-.39-.44-.62-.07-.14-.13-.29-.17-.44-.08-.27-.14-.54-.2-.81-.03-.14-.04-.28-.05-.42-.04-.55-.05-1.1,.08-1.64,.06-.23,.1-.47,.21-.69,.07-.14,.14-.29,.21-.43,.11-.21,.25-.39,.41-.57,.2-.22,.41-.42,.66-.57,.17-.1,.34-.19,.52-.26,.47-.17,.95-.21,1.45-.16,.56,.07,1.05,.29,1.5,.63,.14,.11,.26,.22,.38,.35,.16,.16,.3,.34,.41,.54,.07,.12,.15,.25,.2,.38,.08,.22,.16,.43,.21,.66,.05,.22,.08,.44,.1,.67,.05,.69,.05,1.38-.15,2.06-.05,.19-.1,.39-.2,.56-.07,.13-.14,.26-.22,.38-.11,.17-.25,.32-.4,.46-.17,.15-.35,.27-.55,.36-.12,.06-.25,.1-.37,.15-.02,0-.04,.03-.05,.04-.02,.18-.04,.37-.06,.55-.04,.41-.07,.81-.11,1.22l-.03,.36h4.26v-2.23h-.29v.04c-.01,.21-.08,.4-.21,.57-.08,.11-.19,.17-.32,.21-.2,.07-.41,.08-.61,.09h-2.17c.02-.15,.04-.3,.07-.45,0-.01,.03-.03,.05-.04,.22-.08,.44-.14,.66-.24,.2-.09,.41-.19,.59-.31,.22-.14,.42-.3,.62-.47,.15-.13,.28-.27,.4-.42,.15-.19,.28-.39,.4-.6,.08-.14,.15-.29,.2-.44,.08-.25,.16-.51,.2-.78,.08-.49,.09-.98-.02-1.47-.06-.26-.1-.52-.22-.76l-.21-.42c-.11-.21-.24-.4-.41-.57-.14-.14-.28-.29-.42-.42-.19-.18-.4-.32-.61-.46-.26-.16-.53-.29-.82-.4-.37-.14-.75-.24-1.14-.29-.47-.07-.94-.09-1.41-.06-.6,.03-1.19,.13-1.75,.34-.37,.13-.71,.3-1.03,.53-.21,.15-.41,.32-.61,.49-.14,.13-.28,.28-.4,.43-.15,.2-.29,.42-.42,.63-.08,.14-.14,.3-.2,.45-.11,.28-.16,.57-.2,.86-.05,.37-.05,.73,.02,1.1,.05,.29,.09,.58,.22,.85,.08,.17,.16,.34,.24,.5,.05,.09,.12,.18,.18,.27,.12,.18,.26,.34,.42,.48,.13,.12,.27,.24,.4,.36,.2,.17,.42,.32,.66,.44,.18,.09,.37,.17,.56,.24,.14,.05,.29,.08,.43,.12,.02,0,.05,.03,.05,.04v.45l.02,.04Z"/><path d="M9.21,15.29v-.45s-.03-.04-.05-.04c-.14-.04-.29-.07-.43-.12-.19-.07-.38-.15-.56-.24-.24-.12-.46-.27-.66-.44-.14-.12-.27-.24-.4-.36-.16-.14-.3-.3-.42-.48-.06-.09-.13-.17-.18-.27-.09-.16-.16-.33-.24-.5-.13-.27-.16-.56-.22-.85-.07-.37-.07-.73-.02-1.1,.04-.29,.09-.59,.2-.86,.06-.15,.12-.31,.2-.45,.13-.22,.26-.43,.42-.63,.12-.16,.25-.3,.4-.43,.19-.18,.39-.34,.61-.49,.32-.23,.66-.4,1.03-.53,.57-.21,1.15-.31,1.75-.34,.47-.02,.94,0,1.41,.06,.39,.06,.77,.15,1.14,.29,.29,.11,.56,.24,.82,.4,.22,.14,.43,.28,.61,.46l.42,.42c.16,.17,.3,.36,.41,.57l.21,.42c.12,.24,.16,.5,.22,.76,.11,.49,.1,.98,.02,1.47-.04,.26-.12,.52-.2,.78-.05,.15-.12,.3-.2,.44-.12,.21-.26,.41-.4,.6-.12,.15-.26,.3-.4,.42-.2,.17-.4,.33-.62,.47-.19,.12-.39,.22-.59,.31-.21,.09-.44,.16-.66,.24-.02,0-.04,.02-.05,.04-.02,.15-.05,.3-.07,.45h2.17c.21,0,.42-.02,.61-.09,.12-.04,.23-.11,.32-.21,.13-.17,.2-.36,.21-.57v-.02h.29v2.22h-4.26c0-.12,.02-.24,.03-.36,.04-.41,.07-.82,.11-1.22,.02-.18,.04-.37,.06-.55,0-.02,.03-.04,.05-.04,.12-.05,.25-.09,.37-.15,.2-.1,.39-.21,.55-.36,.15-.14,.29-.28,.4-.46,.08-.13,.14-.26,.22-.38,.1-.18,.15-.37,.2-.56,.19-.68,.2-1.37,.15-2.06-.02-.22-.05-.45-.1-.67s-.13-.44-.21-.66c-.05-.13-.12-.26-.2-.38-.12-.19-.25-.38-.41-.54-.12-.12-.25-.24-.38-.35-.44-.35-.94-.56-1.5-.63-.49-.06-.98-.02-1.45,.16-.18,.07-.35,.16-.52,.26-.25,.15-.47,.35-.66,.57-.16,.18-.3,.36-.41,.57-.08,.14-.14,.29-.21,.43-.11,.22-.16,.46-.21,.69-.13,.54-.12,1.09-.08,1.64,.01,.14,.02,.28,.05,.42,.06,.27,.13,.55,.2,.81,.04,.15,.11,.3,.17,.44,.11,.23,.26,.44,.44,.62,.28,.27,.6,.46,.96,.59,.07,.03,.1,.06,.1,.14,.03,.49,.06,.97,.09,1.46,.01,.19,.02,.39,.04,.59H5.62v-2.23h.28c0,.08,.03,.17,.04,.25,.03,.15,.1,.28,.2,.39,.11,.12,.26,.18,.42,.21,.19,.03,.39,.06,.59,.06h2.06v-.05Z"/></g><g><g><polygon class="cls-3" points="5.01 23.65 5.01 29.04 5.62 29.04 5.62 23.65 5.62 18.26 5.01 18.26 5.01 23.65"/><path d="M6.82,17.18H3.81v12.94h13.84v-4.18h-3.61v2.56h1.2v-1.62h1.2v2.16H6.82v-10.78h9.63v2.16h-1.2v-1.62h-1.2v2.56h3.61v-4.18H6.82Zm-1.2,6.47v5.39h-.6v-10.78h.6v5.39Z"/></g><path d="M16.01,8.79c1.25-1.25,2.95-3.55,2.95-3.55l-3.33,.78,.82-2.32-3.36,1.68-1.9-4.28-1.79,4.32-1.9-1.84-.49,2.43-3.62-.99,2.76,3.51c2.44-3.58,8.07-2.98,9.86,.26Z"/></g><text class="cls-2" transform="translate(7.22 25.37) scale(1.08 1)"><tspan x="0" y="0">olchis</tspan></text></svg>